<svg xmlns="http://www.w3.org/2000/svg" viewBox="0 0 1221.18 835.63"><defs><style>.cls-1{fill:#824904;}.cls-2{fill:#fff;}.cls-3{fill:none;stroke:#000;stroke-miterlimit:10;stroke-width:0.99px;}</style></defs><title>Asset 1</title><g id="Layer_2" data-name="Layer 2"><g id="Layer_1-2" data-name="Layer 1"><rect class="cls-1" x="0.49" y="0.49" width="1220.19" height="828.69" rx="0.71" ry="0.71"/><path d="M1220,1a.21.21,0,0,1,.21.21V828.48a.21.21,0,0,1-.21.21H1.2a.21.21,0,0,1-.21-.21V1.2A.21.21,0,0,1,1.2,1H1220m0-1H1.2A1.2,1.2,0,0,0,0,1.2V828.48a1.2,1.2,0,0,0,1.2,1.2H1220a1.2,1.2,0,0,0,1.2-1.2V1.2A1.2,1.2,0,0,0,1220,0Z"/><rect class="cls-1" x="3.61" y="3.6" width="1213.96" height="822.48"/><path d="M1217.08,4.09v821.5H4.1V4.09h1213m1-1H3.12V826.57H1218.06V3.11Z"/><rect class="cls-2" x="651.03" y="12.99" width="554.48" height="805.02"/><path d="M1205,13.48v804H651.52v-804H1205m1-1H650.54v806H1206V12.5Z"/><path class="cls-2" d="M641.25,818V13c74.87,4,150.85,6.35,225.82,7.08,17.05.17,34.35.25,51.4.25,92,0,185.31-2.47,277.26-7.34V818Z"/><path d="M1195.25,13.53v804H641.74v-804c74.72,3.95,150.52,6.32,225.32,7.06,17.05.17,34.35.25,51.42.25,91.87,0,185-2.46,276.76-7.31m1-1c-88.59,4.7-181.26,7.36-277.74,7.36q-25.52,0-51.41-.25-117-1.15-226.31-7.11v806h555.46V12.5Z"/><path class="cls-2" d="M629.85,818V13c80,8,161.36,12.62,241.74,13.65,11.77.15,23.71.23,35.48.23,92.18,0,185.47-4.67,277.26-13.87V818Z"/><path d="M1183.84,13.58V817.52H630.34V13.58c79.87,8,161,12.57,241.24,13.6,11.77.15,23.71.23,35.49.23,92,0,185.13-4.65,276.77-13.82m1-1.08A2777.8,2777.8,0,0,1,907.07,26.43q-17.58,0-35.47-.23C785.11,25.09,704.12,20,629.36,12.5v806h555.46V12.5Z"/><path class="cls-2" d="M620.08,818V13C703.34,21.33,788,25.92,871.59,26.69c8.53.08,17.18.12,25.71.12,92.19,0,185.47-4.63,277.26-13.77V818Z"/><path d="M1174.07,13.58V817.52H620.57V13.58c83.1,8.25,167.55,12.83,251,13.6,8.54.08,17.19.12,25.72.12,92,0,185.13-4.61,276.76-13.71m1-1.08c-84.48,8.42-177.45,13.82-277.74,13.82q-12.77,0-25.71-.12c-90.29-.83-174.57-6-252-13.7v806h555.46V12.5Z"/><path class="cls-2" d="M886.54,835.14c-27.86,0-56.1-.53-83.94-1.56-64.25-2.39-129.22-7.61-193.11-15.51V13C665,18.54,721.37,22.43,777.06,24.6c36.3,1.42,73.12,2.13,109.46,2.13C978.64,26.73,1072,22.13,1164,13v805A2275.23,2275.23,0,0,1,886.54,835.14Z"/><path d="M1163.48,13.58v804a2274.5,2274.5,0,0,1-276.95,17c-27.85,0-56.09-.53-83.92-1.56-64.1-2.39-128.9-7.59-192.64-15.46v-804C665.32,19.05,721.52,22.93,777,25.09c36.3,1.42,73.13,2.13,109.48,2.13,92,0,185.13-4.59,277-13.64m1-1.08c-86,8.51-178.88,13.74-277.94,13.74q-53.54,0-109.44-2.13C718.74,21.84,662.66,17.83,609,12.5v806c60.29,7.47,125,13,193.58,15.57q42.84,1.6,84,1.56a2266.65,2266.65,0,0,0,277.93-17.13V12.5Z"/><rect class="cls-2" x="12.49" y="12.99" width="554.48" height="805.02"/><path d="M566.48,13.48v804H13v-804h553.5m1-1H12v806H567.46V12.5Z"/><rect class="cls-2" x="22.26" y="12.99" width="554.48" height="805.02"/><path d="M576.25,13.48v804H22.75v-804h553.5m1-1H21.77v806H577.24V12.5Z"/><rect class="cls-2" x="33.67" y="12.99" width="554.48" height="805.02"/><path d="M587.66,13.48v804H34.16v-804h553.5m1-1H33.18v806H588.64V12.5Z"/><path class="cls-2" d="M43.44,818V13c91,5.68,183.38,8.58,274.56,8.64h2.69c92.06,0,185.33-2.91,277.23-8.64V818Z"/><path d="M43.93,13.54C134.78,19.2,227,22.09,318,22.15h2.68c91.91,0,185-2.89,276.75-8.6v804H43.93v-804m554.48-1C511,18,418.24,21.17,320.68,21.17H318c-96.57-.06-188.42-3.25-275.05-8.67v806H598.41V12.5Z"/><path class="cls-2" d="M331.27,832.08H328.6c-91.33-.09-183.7-4.81-274.58-14v-805A2419.17,2419.17,0,0,0,313.33,29c6,0,12,.07,17.93.07a2419.19,2419.19,0,0,0,277.25-16v805A2758.9,2758.9,0,0,1,331.27,832.08Z"/><path d="M608,13.6v804a2758.1,2758.1,0,0,1-276.75,14h-2.66c-91.16-.09-183.37-4.79-274.09-14V13.6A2419.55,2419.55,0,0,0,313.33,29.48c5.95,0,12,.07,17.93.07A2419.5,2419.5,0,0,0,608,13.6m1-1.1A2409.22,2409.22,0,0,1,331.26,28.57q-8.93,0-17.93-.07a2408.75,2408.75,0,0,1-259.8-16v806A2748,2748,0,0,0,328.6,832.57h2.66A2748,2748,0,0,0,609,818.5V12.5Z"/><path class="cls-3" d="M.72.74A6.13,6.13,0,0,0,1.79,2.31,6.15,6.15,0,0,0,3.72,3.68"/><path class="cls-3" d="M3.59,826a5.44,5.44,0,0,0-2.72,2.81"/><path class="cls-3" d="M1217.62,826.16a6.73,6.73,0,0,1,2.89,2.83"/><path class="cls-3" d="M1217.43,3.78a4.28,4.28,0,0,0,2.18-1.47,4.17,4.17,0,0,0,.75-1.59"/></g></g></svg>